<svg version="1.1" id="Capa_1" xmlns="http://www.w3.org/2000/svg" xmlns:xlink="http://www.w3.org/1999/xlink" x="0px" y="0px" viewBox="-243 245 512 512" enable-background="new -243 245 512 512" xml:space="preserve">
<path d="M280.6,366.6c0-0.4-0.1-0.8-0.1-1.2c-6.2-34.8-29.7-68.9-62.6-82.9c-24-10.3-51.7-10.7-76.5-2.8 c-24.3,7.8-44.5,24.7-60.1,44.5c-15.9,20.2-27.4,43.2-37.2,66.9c-7.4,17.8-13.5,36.2-18.8,54.7C12.7,401.1-4.6,356.3-34,320.4 c-15.9-19.4-36.7-34.9-60.9-41.8c-25-7.2-52.3-5.5-75.9,5.4c-20.2,9.3-36.1,26.6-46.5,46c-6.8,12.6-12.3,27-13.6,41.4 c-2.5,27.1,27.2,46.6,51.5,37.5c12-4.5,20.9-14.7,23.9-27.1c2-8.5,4.9-16.7,10.7-23.4c7.4-8.5,18.7-9,29-6.2c3.8,1,3.7,1.1,7.4,3.2 c3.9,2.2,5.2,3.4,8.3,6.3c15.4,14.1,25.2,34.2,33.4,53.1c11.8,27.2,19.8,56.1,26.6,84.9c6.6,27.6,11.6,55.6,16,83.7 c3.5,22.6,6.1,45.3,9.7,67.9c2,12.4,6.6,23.7,17,31.4c8.3,6.1,18.7,8.3,28.8,6.7c10.9-1.7,20-8.2,26.1-17.3c6.8-10,7.4-23.3,9-34.9 c3.2-23.2,6.3-46.3,10.2-69.4c4.8-28.8,10.5-57.5,17.9-85.7c7.2-27.8,15.9-55.4,28.7-81.2c4.9-9.8,10.4-19.4,17-28.2 c2.3-3.1,5-6.1,7.8-8.9c3.2-3.2,5.2-4.9,8.3-7c1.4-0.9,2.9-1.8,4.4-2.6c0.5-0.3,1.1-0.5,1.6-0.8c-0.4,0.2,1.2-0.5,1.4-0.5 c5-1.8,10.3-2.3,15.6-2.1c11.1,0.3,17.7,8.9,22.2,18.1c3.9,8,4.3,17,9.2,24.7c6.5,10.4,17.4,16,29.3,17.4c11.3,1.4,23.1-3.9,30.8-12 C279.4,390.2,282.1,378.4,280.6,366.6z" fill="#3C648A"/>
</svg>
