<svg version="1.1" id="Capa_1" xmlns="http://www.w3.org/2000/svg" xmlns:xlink="http://www.w3.org/1999/xlink" x="0px" y="0px" viewBox="-245 245 512 512" enable-background="new -243 245 512 512" xml:space="preserve">
    <path d="M362.3,660.9l-31.9-95.7c-5-15.1-18.5-24.8-34.4-24.8c-4.2,0-8.5,0.7-12.6,2.1l-87.1,29c-1,0.3-1.9,0.6-2.9,0.9 c-2.5,0.8-5.3,1.6-8.1,2.8c-16.2,6.8-25.3,26-20.1,42.9c4.6,15.1,18.8,26.1,33.8,26.1c2.1,0,4.2-0.2,6.2-0.6 c6.1-1.2,14.5-4.1,19.8-6c-2.2,9.3-2.9,39.7-52.4,38.3c-38.8-1.1-43.2-50.5-43.2-57.5c0-1.5,0-3.1,0-4.6V369.8 c0-23.3-7-45.4-20.3-63.8c-16.4-22.7-41.8-38.4-69.6-42.9c-5.5-0.9-11.2-1.4-16.8-1.4c-26.2,0-52.3,10-72.1,27.4 c-3.8-3.4-7.2-6.1-10.6-8.4c-18.6-12.4-40-19-61.8-19c-10.4,0-20.7,1.5-30.6,4.6c-26.9,8.3-49.9,27.1-63,51.5 c-8.5,15.9-12.9,33.7-12.9,52.9v335.8c0,9.6,3.5,18.8,9.8,25.9c6.8,7.6,15.9,11.8,25.8,11.8c3.6,0,7.2-0.6,10.8-1.7 c16.1-5.1,25.3-19.1,25.3-38.5V369.2c0-17.3,13-32.7,29.6-35.2c1.7-0.2,3.4-0.4,5.1-0.4c19.9,0,36.7,16.1,36.7,35.2v332.7 c0,9.3,0,22.1,10.7,32.4c6.8,6.5,15.6,10.1,24.8,10.1c19.9,0,36.1-16.1,36.1-36V400.6c0-3.4-0.1-6.8-0.2-10.1 c-0.4-17.3-0.8-33.7,9.2-44.7c6.9-7.6,16.9-12,27.4-12c10.8,0,20.6,4.7,27,12.8c6.6,8.3,7.9,18.1,7.9,30.3v246.6 c0,20.3,3.3,36.4,10.5,50.7c12.8,25.6,31.1,58.2,109.2,58.2c11.3,0,92-1.7,110.9-66.3l4,11.9c2.3,6.9,5.1,15.5,13.3,22.3 c6.3,5.2,14.5,8,23,8c8.6,0,16.7-3,22.6-8.4C362.8,689.7,366.8,675.4,362.3,660.9z" fill="#3C648A"/>
</svg>
