<svg xmlns="http://www.w3.org/2000/svg" xmlns:xlink="http://www.w3.org/1999/xlink" version="1.1" id="Capa_1" x="0px" y="0px" width="512px" height="512px" viewBox="0 0 514.08 514.08" style="enable-background:new 0 0 514.08 514.08;" xml:space="preserve">
	<path d="M0,506.241c171.36,0,342.72,0,514.08,0c0-30.6,0-61.2,0-91.8c-171.36,0-342.72,0-514.08,0C0,445.041,0,475.642,0,506.241z" fill="#3C648A"/>
	<path d="M441.093,267.414c31.401-75.429,12.075-157.057-49.823-210.43C327.255,1.788,232.615-8.09,157.106,33.331   C68.826,81.752,35.392,182.059,73.654,268.62c0.612,1.389,0.832,5.062,1.469,5.062H0v97.92h211.165   c0.202-6.12,0.459-3.121,0.459-4.021c0.08-29.56,0.019-59.571,0.324-89.131c0.049-4.535-2.521-6.261-5.502-8.25   c-33.458-22.332-48.176-62.773-36.53-100.038c11.8-37.767,47.773-64.107,87.247-63.801c39.939,0.306,75.956,26.983,86.763,64.291   c11.236,38.794-3.653,77.975-38.428,100.301c-4.033,2.589-5.729,5.146-5.673,9.993c0.257,22.712,0.055,45.411,0.055,68.116v22.54   h214.2v-97.92h-75.533C439.716,273.682,440.383,269.122,441.093,267.414z" fill="#3C648A"/>
</svg>
